<svg width="107.000000pt" height="107.000000pt" viewBox="0 0 107.000000 107.000000"
  preserveAspectRatio="xMidYMid meet"
  xmlns="http://www.w3.org/2000/svg">
  <g fill="#000000" stroke="none">
    <path
      d="M42.5906 28.9519C46.6762 28.7876 50.6162 29.9529 53.8201 32.5646C56.418 34.6817 58.484 37.5604 59.4293 40.8089C60.1599 43.3191 60.1942 45.9474 60.2113 48.5388L60.2816 57.9446C60.303 59.4791 60.2253 61.1218 60.41 62.6426C60.5598 63.8793 61.1425 64.8606 62.1538 65.5724C62.9443 66.1286 64.0902 66.3722 65.0324 66.2178C66.5646 65.9668 67.6976 65.1805 68.2112 63.6609C68.7272 62.1338 68.5144 60.1128 68.5242 58.5014L68.5658 50.5882C68.597 45.5272 68.7566 40.3031 71.829 36.0352C74.4465 32.3997 78.3883 29.8428 82.8095 29.1401C87.2301 28.4375 91.7027 29.4336 95.3395 32.0933C98.9536 34.7358 101.416 38.8622 102.057 43.3154C102.177 44.1488 102.264 44.9965 102.326 45.8539C102.615 49.8485 102.361 54.0506 102.364 57.9717C102.366 60.9698 102.741 64.6102 102.156 67.5474C101.991 68.3736 101.538 69.2657 101.031 69.9363C100.025 71.2653 98.4229 72.2884 96.7555 72.465C95.0331 72.6477 93.2575 72.1285 91.9338 70.9829C90.9714 70.1498 90.2163 68.7569 89.9216 67.5246C89.4337 65.4875 89.6581 63.0358 89.6557 60.9427L89.6196 45.8539C89.5529 44.5009 89.257 43.6894 88.2225 42.8152C87.4191 42.1353 86.2427 41.677 85.1867 41.7889C84.0067 41.9132 82.321 42.8921 81.8557 44.0395C81.2565 45.5149 81.4063 47.6258 81.38 49.2014L81.2975 58.1138C81.2449 63.571 81.1141 68.25 77.5592 72.74C74.5076 76.5939 70.4899 78.5061 65.686 79.0456C61.2635 79.2345 57.1468 78.1326 53.7357 75.2016C51.4593 73.2458 49.674 70.8118 48.7012 67.9491C47.6936 64.9849 47.6667 62.0182 47.6276 58.9309C47.5713 54.4925 47.8055 49.8616 47.4221 45.4484C47.3353 44.4499 47.1146 43.674 46.3099 43.0139C45.4185 42.2824 44.2378 41.6548 43.062 41.7908C41.723 41.9458 40.3186 42.7918 39.7304 44.0389C39.0731 45.4336 39.27 47.4572 39.2669 48.9701L39.2529 57.6327C39.2419 63.2253 39.0902 68.1441 35.4394 72.7314C32.6831 76.1946 28.6006 78.519 24.1965 78.9786C19.6145 79.4572 15.2117 78.2102 11.6605 75.2281C7.97667 72.134 6.05802 67.7504 5.67404 63.0038C5.37139 59.2576 5.59578 55.3668 5.59395 51.5978L5.59822 45.0817C5.60311 43.5018 5.53892 41.8942 5.85075 40.337C6.05802 39.3021 6.64131 38.3282 7.32856 37.5413C8.45113 36.2542 9.91121 35.5873 11.5969 35.4925C13.1774 35.4033 14.7488 35.8598 15.9331 36.9445C16.7922 37.7308 17.4959 38.8013 17.7962 39.9352C18.4345 42.3408 18.1893 45.1248 18.1893 47.6005C18.1899 52.4136 17.9753 57.33 18.2351 62.1326C18.3091 63.5003 18.7708 64.5437 19.8261 65.4303C20.6166 66.0948 21.7013 66.3593 22.7163 66.2486C24.2687 66.0788 25.6285 65.0833 26.1244 63.5649C26.6282 62.0212 26.4362 59.9516 26.4521 58.3236L26.5255 50.2861C26.5793 44.8885 26.792 39.4892 30.4392 35.14C33.6675 31.2892 37.646 29.3487 42.5906 28.9519Z"
    />
  </g>
</svg>
